<?xml version="1.0" encoding="UTF-8"?>
<svg width="24px" height="24px" viewBox="0 0 24 24" version="1.1" xmlns="http://www.w3.org/2000/svg" xmlns:xlink="http://www.w3.org/1999/xlink">
    <!-- Generator: Sketch 63.1 (92452) - https://sketch.com -->
    <title>icon/social/instagram/grey@1x</title>
    <desc>Created with Sketch.</desc>
    <g id="Low-Fi-v1" stroke="none" stroke-width="1" fill="none" fill-rule="evenodd">
        <g id="Style-Guide" transform="translate(-877.000000, -3721.000000)" fill="#878787">
            <g id="icon/social/instagram/grey" transform="translate(877.000000, 3721.000000)">
                <path d="M13.1580834,0.000830518519 C15.381588,0.00458222222 15.8355816,0.0220166667 16.9449265,0.0725 C18.2224398,0.131 19.0949489,0.33325 19.8599569,0.63 C20.6499651,0.93625 21.3174721,1.34625 21.984979,2.01375 C22.652486,2.68075 23.0624902,3.35025 23.3699934,4.1395 C23.6649965,4.9025 23.8674986,5.7745 23.9274992,7.052 C23.9849998,8.332 24,8.741 24,12 C24,15.259 23.9849998,15.667 23.9274992,16.947 C23.8674986,18.224 23.6649965,19.09625 23.3699934,19.8595 C23.0624902,20.6485 22.652486,21.318 21.984979,21.985 C21.3182221,22.6525 20.6497151,23.0635 19.8607069,23.37 C19.0971989,23.66675 18.2241898,23.869 16.9466765,23.9275 C15.6666632,23.98575 15.2589089,24 11.999625,24 C8.74084105,24 8.33208679,23.98575 7.05207346,23.9275 C5.77481015,23.869 4.90255107,23.66675 4.13904312,23.37 C3.3502849,23.0635 2.68077792,22.6525 2.01402098,21.985 C1.34676403,21.318 0.936759758,20.6485 0.630006563,19.85925 C0.333503474,19.09625 0.131251367,18.22425 0.0725007552,16.94675 C0.0222335649,15.8374167 0.00464004833,15.38324 0.000842082846,13.1603594 L0.000864601599,10.8395677 C0.0047511606,8.61638667 0.0226335691,8.16108333 0.0722507526,7.05175 C0.129751352,5.77475 0.332253461,4.9025 0.62975656,4.13925 C0.937259763,3.35025 1.34726403,2.68075 2.01477099,2.01375 C2.68177794,1.3465 3.35128491,0.9365 4.14054313,0.63 C4.90355108,0.33325 5.77556016,0.131 7.05307347,0.0725 C8.16241836,0.0220166667 8.61753865,0.00458222222 10.8406928,0.000830518519 Z M12.0002434,6 C8.68670886,6 6,8.68676336 6,12.0006086 C6,15.3144538 8.68670886,18 12.0004869,18 C15.3142648,18 18,15.3144538 18,12.0006086 C18,8.68676336 15.3140214,6 12.0002434,6 Z M12,8 C14.209,8 16,9.79075 16,12 C16,14.209 14.209,16 12,16 C9.79075,16 8,14.209 8,12 C8,9.79075 9.79075,8 12,8 Z M18.5,4 C17.671875,4.00052083 17,4.67161458 17,5.5 C17,6.328125 17.671875,7 18.5,7 C19.328125,7 20,6.328125 20,5.5 C20,4.671875 19.328125,4 18.5,4 Z" id="Mask"></path>
            </g>
        </g>
    </g>
</svg>