<?xml version="1.0" encoding="UTF-8"?>
<svg width="25px" height="38px" viewBox="0 0 25 38" version="1.1" xmlns="http://www.w3.org/2000/svg" xmlns:xlink="http://www.w3.org/1999/xlink">
    <!-- Generator: Sketch 63.1 (92452) - https://sketch.com -->
    <title>Group 8</title>
    <desc>Created with Sketch.</desc>
    <defs>
        <polygon id="path-1" points="0 0.342387755 24.7884615 0.342387755 24.7884615 38 0 38"></polygon>
    </defs>
    <g id="Low-Fi-v1" stroke="none" stroke-width="1" fill="none" fill-rule="evenodd">
        <g id="Widget-start" transform="translate(-23.000000, -667.000000)">
            <g id="Group-8" transform="translate(23.000000, 667.000000)">
                <g id="Group-3">
                    <mask id="mask-2" fill="white">
                        <use xlink:href="#path-1"></use>
                    </mask>
                    <g id="Clip-2"></g>
                    <path d="M12.3861154,0.342387755 C14.0522692,0.342387755 15.4165,1.62973469 15.5326538,3.26140816 L17.6576538,3.26140816 L17.6576538,3.27653061 L20.9003462,3.27653061 C23.0476538,3.27653061 24.7888077,5.02840816 24.7888077,7.18936735 L24.7888077,34.087551 C24.7888077,36.2485102 23.0476538,38 20.9003462,38 L3.88842308,38 C1.74073077,38 -3.84615385e-05,36.2485102 -3.84615385e-05,34.087551 L-3.84615385e-05,7.18936735 C-3.84615385e-05,5.02840816 1.74073077,3.27653061 3.88842308,3.27653061 L6.7915,3.27653061 L6.7915,3.26140816 L9.23919231,3.26140816 C9.32111538,2.11210204 10.0222692,1.13379592 11.0122692,0.655693878 C11.4249615,0.454836735 11.8880385,0.342387755 12.3772692,0.342387755 L12.3861154,0.342387755 Z M6.7915,4.82755102 L3.88842308,4.82755102 C2.58996154,4.82755102 1.53842308,5.88573469 1.53842308,7.18936735 L1.53842308,34.087551 C1.53842308,35.3911837 2.58996154,36.4489796 3.88842308,36.4489796 L20.9003462,36.4489796 C22.1988077,36.4489796 23.2503462,35.3911837 23.2503462,34.087551 L23.2503462,7.18936735 C23.2503462,5.88573469 22.1988077,4.82755102 20.9003462,4.82755102 L17.6576538,4.82755102 L17.6576538,6.48365306 C17.6576538,8.1967551 16.2803462,9.58569388 14.5807308,9.58569388 L9.86842308,9.58569388 C8.16919231,9.58569388 6.7915,8.1967551 6.7915,6.48365306 L6.7915,4.82755102 Z M8.32996154,4.82755102 L8.32996154,6.48365306 C8.32996154,7.34020408 9.01880769,8.03467347 9.86842308,8.03467347 L14.5807308,8.03467347 C15.4307308,8.03467347 16.1191923,7.34020408 16.1191923,6.48365306 L16.1191923,4.82755102 L14.0788077,4.82755102 L13.9768846,3.38704082 C13.9180385,2.55259184 13.2253462,1.89806122 12.3861154,1.89340816 C12.1399615,1.89340816 11.9068846,1.94769388 11.6980385,2.04463265 C11.1857308,2.28542857 10.8195769,2.79028571 10.7776538,3.38704082 L10.6757308,4.82755102 L8.32996154,4.82755102 Z" id="Fill-1" fill="#231F20" mask="url(#mask-2)"></path>
                </g>
                <path d="M12.5,20 C10.5668947,20 9,18.4331053 9,16.5 C9,14.5668947 10.5668947,13 12.5,13 C14.4327368,13 16,14.5668947 16,16.5 C16,18.4331053 14.4327368,20 12.5,20" id="Fill-4" fill="#046E73"></path>
                <path d="M10.8285714,21 L14.1714286,21 C16.8382857,21 19,23.328 19,26.2 L19,31 L6,31 L6,26.2 C6,23.328 8.16171429,21 10.8285714,21" id="Fill-6" fill="#046E73"></path>
            </g>
        </g>
    </g>
</svg>