<?xml version="1.0" encoding="UTF-8"?>
<svg width="29px" height="27px" viewBox="0 0 29 27" version="1.1" xmlns="http://www.w3.org/2000/svg" xmlns:xlink="http://www.w3.org/1999/xlink">
    <!-- Generator: Sketch 63.1 (92452) - https://sketch.com -->
    <title>MTT_icon</title>
    <desc>Created with Sketch.</desc>
    <g id="Low-Fi-v1" stroke="none" stroke-width="1" fill="none" fill-rule="evenodd">
        <g id="Widget-start" transform="translate(-21.000000, -739.000000)" fill-rule="nonzero">
            <g id="MTT_icon" transform="translate(21.000000, 739.000000)">
                <path d="M13.6275573,1.32407853 C19.7303938,1.33368001 24.874192,5.89831599 25.6341221,11.978773 C25.8457262,13.6459478 25.7071099,15.3391466 25.2272073,16.9492397 C24.9902695,17.7354113 25.6032172,20.6163165 25.608368,20.6473496 C25.8836911,21.9630337 26.2963183,23.2459221 26.8394144,24.4747641 C25.4023352,24.3609761 23.5016821,24.0971949 22.2448816,23.9265129 C21.6838048,23.8302905 21.1181917,23.7629641 20.5502613,23.7247978 C20.3002433,23.721232 20.0541546,23.7874859 19.839448,23.9161685 C18.3999156,24.7866983 16.7941757,25.3435486 15.1264463,25.5505779 C14.6257306,25.6123376 14.1217346,25.6434282 13.6172556,25.643679 C8.99278581,25.6461582 4.77138565,23.0014969 2.7405857,18.8295619 C0.70978574,14.6576268 1.22483273,9.6882123 4.06763261,6.02559176 C6.0290913,3.4705751 8.9292016,1.81235251 12.1183666,1.42234999 C12.6189796,1.35888671 13.1229744,1.32606892 13.6275573,1.32407853 M13.6275573,0 C13.0697196,0.00127174918 12.5124496,0.0358137864 11.9586911,0.103443635 C4.83551487,0.893623009 -0.415639612,7.15947752 0.0259140998,14.3420354 C0.467467811,21.5245932 6.44622583,27.0943418 13.6121048,26.9987888 C14.1699425,26.9975171 14.7272125,26.9629751 15.280971,26.8953452 C17.1337761,26.6623627 18.9178603,26.0440633 20.5193564,25.0799094 L20.5502613,25.0799094 C21.0035336,25.0488763 25.8504567,25.8609088 28.0035,25.8609088 C28.724615,25.8609088 29.1315299,25.7729818 28.9615528,25.524717 C26.8239619,22.4938185 26.4582536,17.5336962 26.4891585,17.3319811 C27.0320762,15.5482224 27.1970078,13.6700723 26.9733357,11.8184353 C26.1247534,5.0655957 20.405836,0.00117358342 13.6275573,0 Z" id="Shape" fill="#000000"></path>
                <path d="M19.9289868,12 C19.4465316,11.9992775 19.0244108,11.6668092 18.8989296,11.1887124 C18.3792812,9.19664213 16.8382862,7.65666095 14.8841021,7.1765262 C14.49479,7.10655117 14.1749255,6.82171443 14.0525378,6.43602503 C13.9301502,6.05033563 14.0252367,5.6268128 14.299738,5.33497622 C14.5742394,5.04313965 14.9833036,4.9306736 15.3631984,5.04259385 C18.0894272,5.69843516 20.2422412,7.84168635 20.9638349,10.6183526 C21.036949,10.8993755 20.9982655,11.1986977 20.856298,11.4504437 C20.7143305,11.7021896 20.4807138,11.8857279 20.2068627,11.9606648 C20.1162276,11.9857671 20.022859,11.998984 19.9289868,12 L19.9289868,12 Z" id="Path" fill="#08A8B2"></path>
                <path d="M15.0652294,21 C14.5231701,20.9915849 14.070998,20.5808829 14.0075139,20.0392911 C13.9440298,19.4976993 14.288838,18.9924641 14.814085,18.8574513 C16.8107093,18.3792782 18.3766645,16.8227523 18.8758623,14.8201317 C19.021234,14.2392161 19.6072254,13.886838 20.1847109,14.0330731 C20.7621963,14.1793082 21.1124938,14.7687803 20.9671222,15.3496959 C20.2740587,18.1364732 18.0948378,20.3024071 15.3163737,20.9659913 C15.2342067,20.9868444 15.1499533,20.9982536 15.0652294,21 L15.0652294,21 Z" id="Path" fill="#08A8B2"></path>
                <path d="M11.9124336,21 C11.8197984,21.0003827 11.727498,20.9889153 11.6378103,20.965871 C8.87559614,20.2560296 6.72504955,18.1017248 6.03255296,15.3508181 C5.93794355,14.9738102 6.05288226,14.5752738 6.33407278,14.3053338 C6.61526329,14.0353937 7.01998609,13.9350603 7.39578601,14.0421282 C7.77158593,14.149196 8.06137001,14.447399 8.15597941,14.8244069 C8.65964973,16.7988454 10.2072929,18.3426883 12.1919608,18.8504778 C12.7194908,18.9942724 13.0601941,19.5019282 12.9911319,20.0412612 C12.9220698,20.5805941 12.4642888,20.9872424 11.9173376,20.9951161 L11.9124336,21 Z" id="Path" fill="#08A8B2"></path>
                <path d="M7.17487411,13 C7.07580894,12.9982241 6.97721801,12.9865169 6.88074083,12.9650732 C6.25695201,12.8131907 5.87922269,12.2114313 6.03510766,11.6178977 C6.76247655,8.95951559 8.87737034,6.84302955 11.6341447,6.01464527 C12.2114695,5.92531606 12.7702012,6.25245348 12.9456482,6.7825306 C13.1210952,7.31260772 12.8599695,7.88462548 12.3327112,8.1252203 C10.3528502,8.71639261 8.83269655,10.2339981 8.30938817,12.1417993 C8.18384229,12.6415944 7.71575032,12.9956816 7.17487411,13 Z" id="Path" fill="#08A8B2"></path>
                <circle id="Oval" fill="#51B665" cx="14" cy="13" r="3"></circle>
            </g>
        </g>
    </g>
</svg>