<?xml version="1.0" encoding="UTF-8"?>
<svg width="28px" height="25px" viewBox="0 0 28 25" version="1.1" xmlns="http://www.w3.org/2000/svg" xmlns:xlink="http://www.w3.org/1999/xlink">
    <!-- Generator: Sketch 63.1 (92452) - https://sketch.com -->
    <title>icon/social/linkedin/grey@1x</title>
    <desc>Created with Sketch.</desc>
    <g id="Low-Fi-v1" stroke="none" stroke-width="1" fill="none" fill-rule="evenodd">
        <g id="Style-Guide" transform="translate(-771.000000, -3720.000000)" fill="#878787">
            <g id="icon/social/linkedin/grey" transform="translate(771.000000, 3720.000000)">
                <path d="M6.16318786,8.01675811 L6.16318786,25 L0.705882353,25 L0.705882353,8.01675811 L6.16318786,8.01675811 Z M21.0740038,7.85350072 C24.9525617,7.85350072 28,10.2963979 28,15.5571625 L28,15.5571625 L28,25 L21.8117647,25 L21.8117647,16.211683 C21.8117647,13.9111701 20.8440228,12.3412154 18.7149905,12.3412154 C17.086907,12.3412154 16.1814042,13.4005248 15.7601518,14.4218154 C15.602277,14.7885854 15.6265655,15.2992307 15.6265655,15.809876 L15.6265655,15.809876 L15.6265655,25 L9.49601518,25 C9.49601518,25 9.57495256,9.432401 9.49601518,8.01675811 L9.49601518,8.01675811 L15.6265655,8.01675811 L15.6265655,10.6825501 C15.9886148,9.51663884 17.9476281,7.85350072 21.0740038,7.85350072 Z M3.33358634,0 C5.34724858,0 6.58519924,1.26804031 6.62466793,2.94385138 C6.62466793,4.58984375 5.34724858,5.89292104 3.29563567,5.89292104 L3.29563567,5.89292104 L3.25616698,5.89292104 C1.28121442,5.89292104 0,4.59431656 0,2.94832419 C0,1.27102219 1.31840607,0 3.33358634,0 Z" id="Fill-88"></path>
            </g>
        </g>
    </g>
</svg>